<svg width="2821" height="2574" viewBox="0 0 2821 2574" fill="none" xmlns="http://www.w3.org/2000/svg">
<path d="M2466.5 2211.2C2409.3 2266.5 2355.1 2302.2 2312.4 2330.4C1809.5 2661.9 1214.4 2565.3 1087.9 2541.7C901.2 2506.8 540.2 2439.5 279.2 2157.5C-115.6 1731 -54.1 1058.9 252.1 615.299C308.2 534.199 604.1 83.7991 1205.5 11.5991C1569.5 -32.1009 1993.8 55.9992 2301.1 292.499C2946.1 788.899 2900.2 1791.8 2466.5 2211.2Z" fill="url(#paint0_linear_946_4344)"/>
<path d="M1234.2 2006.2L1183.5 2461H1771.8L1695.2 2006.2H1234.2Z" fill="#005AC8"/>
<path d="M3.86721e-06 660.199V1911.4C3.86721e-06 2014.3 82.1 2098.5 184.9 2101.1C641.9 2112.9 2240.2 2141.5 2675.2 2135.1C2711.19 2134.57 2745.59 2120.16 2771.21 2094.87C2796.83 2069.59 2811.7 2035.38 2812.7 1999.4C2821.1 1708.7 2834.8 1009.8 2784.3 685.299C2779.16 652.192 2762.62 621.919 2737.53 599.715C2712.44 577.511 2680.39 564.772 2646.9 563.699C2264 551.399 569.7 512.499 134.9 522.299C98.8491 523.083 64.5396 537.958 39.3236 563.734C14.1077 589.511 -0.00853015 624.139 3.86721e-06 660.199V660.199Z" fill="url(#paint1_linear_946_4344)"/>
<path d="M78.5 654.199V1842.8C78.5228 1871.69 89.9005 1899.41 110.179 1919.99C130.458 1940.57 158.013 1952.35 186.9 1952.8L2612.7 1982.8C2626.86 1983 2640.91 1980.39 2654.05 1975.12C2667.2 1969.85 2679.16 1962.03 2689.26 1952.11C2699.36 1942.18 2707.39 1930.36 2712.89 1917.31C2718.39 1904.26 2721.25 1890.26 2721.3 1876.1L2725.3 698.099C2725.39 677.623 2717.45 657.928 2703.18 643.235C2688.92 628.543 2669.47 620.022 2649 619.499L165.4 569.399C154.088 569.119 142.835 571.105 132.303 575.241C121.771 579.377 112.173 585.579 104.075 593.482C95.977 601.384 89.5422 610.827 85.1498 621.255C80.7575 631.683 78.4965 642.884 78.5 654.199V654.199Z" fill="#7D97F4"/>
<path d="M147.4 691.9V1807.6C147.4 1864 193.3 1909.9 250.5 1910.8L2560.3 1938.9C2617 1939.7 2663.5 1894.7 2663.7 1838.8L2667.5 733.1C2667.7 693.1 2635.4 660.4 2594.8 659.4L230.1 612.3C184.7 611.2 147.4 647.2 147.4 691.9Z" fill="#91B3FA"/>
<path d="M2739.5 2031.8L78.5 1986.5C78.0141 1986.49 77.5343 1986.39 77.0879 1986.2C76.6415 1986.01 76.2373 1985.73 75.8983 1985.38C75.5594 1985.03 75.2923 1984.62 75.1125 1984.17C74.9326 1983.72 74.8434 1983.24 74.8499 1982.75C74.8565 1982.26 74.9587 1981.78 75.1507 1981.34C75.3427 1980.89 75.6208 1980.49 75.969 1980.15C76.3172 1979.81 76.7288 1979.54 77.1802 1979.36C77.6316 1979.18 78.1141 1979.09 78.5999 1979.1L2739.6 2024.4C2740.09 2024.4 2740.58 2024.5 2741.04 2024.69C2741.49 2024.88 2741.91 2025.16 2742.25 2025.52C2742.6 2025.87 2742.87 2026.29 2743.05 2026.75C2743.23 2027.21 2743.31 2027.71 2743.3 2028.2C2743.25 2029.17 2742.83 2030.09 2742.12 2030.76C2741.41 2031.43 2740.47 2031.8 2739.5 2031.8Z" fill="#91B3FA"/>
<path d="M1435.3 2087.2C1429.09 2087.2 1423.02 2085.36 1417.86 2081.91C1412.69 2078.46 1408.67 2073.55 1406.29 2067.81C1403.91 2062.08 1403.29 2055.76 1404.5 2049.67C1405.72 2043.58 1408.71 2037.99 1413.1 2033.6C1417.49 2029.2 1423.08 2026.21 1429.17 2025C1435.27 2023.79 1441.58 2024.41 1447.32 2026.79C1453.05 2029.17 1457.96 2033.19 1461.41 2038.35C1464.86 2043.52 1466.7 2049.59 1466.7 2055.8C1466.67 2064.12 1463.36 2072.09 1457.47 2077.97C1451.59 2083.86 1443.62 2087.17 1435.3 2087.2V2087.2ZM1435.3 2031.8C1430.55 2031.8 1425.91 2033.21 1421.97 2035.84C1418.02 2038.48 1414.94 2042.23 1413.13 2046.61C1411.31 2051 1410.84 2055.83 1411.76 2060.48C1412.69 2065.14 1414.97 2069.41 1418.33 2072.77C1421.69 2076.13 1425.96 2078.41 1430.62 2079.34C1435.27 2080.26 1440.1 2079.79 1444.48 2077.97C1448.87 2076.16 1452.62 2073.08 1455.26 2069.13C1457.89 2065.19 1459.3 2060.55 1459.3 2055.8C1459.27 2049.44 1456.74 2043.35 1452.24 2038.86C1447.75 2034.36 1441.66 2031.82 1435.3 2031.8V2031.8Z" fill="#91B3FA"/>
<path d="M1898.6 2554.1H1037.5C1014.1 2554.1 996.5 2537.4 1001 2519.5L1012.1 2475.8C1015.4 2462.7 1029.9 2453 1047 2452.5L1877.2 2426.6C1895.1 2426 1911 2435.6 1914.9 2449.2L1934.8 2518.8C1940 2536.9 1922.3 2554.1 1898.6 2554.1Z" fill="#005AC8"/>
<path d="M1501 2465.2C1500.04 2465.2 1499.11 2464.82 1498.42 2464.15C1497.73 2463.48 1497.33 2462.56 1497.3 2461.6C1497.29 2461.1 1497.37 2460.61 1497.55 2460.15C1497.73 2459.69 1498 2459.27 1498.35 2458.92C1498.69 2458.56 1499.11 2458.28 1499.56 2458.09C1500.02 2457.9 1500.51 2457.8 1501 2457.8L1536.5 2457.3C1537.47 2457.3 1538.41 2457.67 1539.12 2458.34C1539.83 2459.01 1540.25 2459.93 1540.3 2460.9C1540.31 2461.39 1540.23 2461.88 1540.05 2462.35C1539.87 2462.81 1539.6 2463.23 1539.25 2463.58C1538.91 2463.93 1538.5 2464.22 1538.04 2464.41C1537.58 2464.6 1537.09 2464.7 1536.6 2464.7L1501.1 2465.2H1501Z" fill="#91B3FA"/>
<path d="M1032.9 2530.9H1032.3C1031.33 2530.75 1030.46 2530.23 1029.88 2529.44C1029.3 2528.65 1029.06 2527.67 1029.2 2526.7L1034.3 2494.9C1035.66 2486.42 1039.97 2478.7 1046.46 2473.09C1052.95 2467.47 1061.22 2464.32 1069.8 2464.2L1447 2458.7C1447.49 2458.69 1447.99 2458.77 1448.45 2458.95C1448.91 2459.13 1449.33 2459.4 1449.68 2459.75C1450.04 2460.09 1450.32 2460.5 1450.51 2460.96C1450.7 2461.41 1450.8 2461.9 1450.8 2462.4C1450.81 2462.88 1450.73 2463.36 1450.56 2463.81C1450.38 2464.26 1450.12 2464.66 1449.78 2465.01C1449.45 2465.35 1449.04 2465.63 1448.6 2465.82C1448.16 2466 1447.68 2466.1 1447.2 2466.1L1069.9 2471.6C1063.07 2471.7 1056.49 2474.22 1051.33 2478.7C1046.17 2483.19 1042.76 2489.35 1041.7 2496.1L1036.6 2527.8C1036.44 2528.66 1035.98 2529.45 1035.31 2530.01C1034.63 2530.58 1033.78 2530.89 1032.9 2530.9V2530.9Z" fill="#91B3FA"/>
<path d="M902.3 695.098L1182.5 692.998C1220.8 692.698 1251.5 722.298 1249.9 757.898L1222.5 1363.4C1221 1396.6 1191.7 1422.9 1156 1423.2L907.7 1425C870.7 1425.3 840.5 1397.6 840.2 1363.2L835.7 757.898C835.5 723.498 865.3 695.398 902.3 695.098Z" fill="#BDD0FB"/>
<path opacity="0.2" d="M1119.5 1545.7L232.9 1556.2C198.7 1556.6 171.8 1578.7 173.5 1605L188.2 1837.2C189.8 1862 216.3 1881.4 248.6 1881.4H1120.4C1153.8 1881.4 1180.8 1860.6 1180.8 1834.9V1592.2C1180.8 1566.2 1153.2 1545.3 1119.5 1545.7Z" fill="white"/>
<path d="M2214.2 1481.1L1327.6 1494C1293.4 1494.5 1266.5 1521.5 1268.2 1553.7L1283 1837.8C1284.5 1868.1 1311.1 1891.9 1343.3 1891.9H2215.2C2248.5 1891.9 2275.6 1866.4 2275.6 1835V1538C2275.6 1506.2 2247.9 1480.6 2214.2 1481.1Z" fill="#BDD0FB"/>
<path d="M725.3 667H267.3C230.3 667 200.3 697.2 200.3 734.5V1390.9C200.3 1428.2 230.3 1458.4 267.3 1458.4H725.3C762.3 1458.4 792.3 1428.2 792.3 1390.9V734.5C792.3 697.2 762.3 667 725.3 667Z" fill="#BDD0FB"/>
<path d="M1855.7 921.5H1397.7C1360.7 921.5 1330.7 937.7 1330.7 957.6V1309.4C1330.7 1329.4 1360.7 1345.6 1397.7 1345.6H1855.7C1892.7 1345.6 1922.7 1329.4 1922.7 1309.4V957.6C1922.7 937.7 1892.7 921.5 1855.7 921.5Z" fill="#BDD0FB"/>
<path d="M2619.4 890H2069.3C2024.9 890 1988.9 906.2 1988.9 926.2V1278C1988.9 1298 2024.9 1314.2 2069.3 1314.2H2619.4C2663.8 1314.2 2699.9 1298 2699.9 1278V926.2C2699.9 906.2 2663.8 890 2619.4 890Z" fill="#BDD0FB"/>
<path d="M433.451 918.6H390.561L376.74 876.305H309.664L296.082 918.6H253.43L320.982 734.051H367.209L433.451 918.6ZM367.447 845.924L346.479 781.945C345.128 777.895 344.175 772.533 343.619 765.861H342.547C342.07 771.262 340.998 776.465 339.33 781.469L318.242 845.924H367.447ZM606.801 906.209C588.771 916.614 566.611 921.816 540.32 921.816C510.932 921.816 487.74 913.556 470.742 897.035C453.745 880.514 445.246 857.917 445.246 829.244C445.246 800.174 454.579 776.544 473.244 758.355C491.989 740.087 516.651 730.953 547.23 730.953C566.928 730.953 584.124 733.733 598.818 739.293V776.584C584.521 768.244 567.048 764.074 546.396 764.074C528.605 764.074 514.189 769.872 503.148 781.469C492.108 793.065 486.588 808.355 486.588 827.338C486.588 846.639 491.552 861.69 501.48 872.492C511.488 883.294 525.11 888.695 542.346 888.695C552.592 888.695 560.971 887.107 567.484 883.93V846.043H530.193V814.471H606.801V906.209ZM795.877 918.6H750.604L721.652 870.586C715.695 860.658 710.811 854.264 706.998 851.404C703.186 848.545 699.135 847.115 694.846 847.115H682.932V918.6H643.615V734.051H708.309C752.232 734.051 774.193 750.73 774.193 784.09C774.193 796.639 770.5 807.402 763.113 816.377C755.806 825.352 745.719 831.667 732.852 835.32V835.797C741.35 838.656 750.762 848.029 761.088 863.914L795.877 918.6ZM682.932 763.955V817.092H702.232C711.446 817.092 718.833 814.431 724.393 809.109C730.032 803.708 732.852 796.997 732.852 788.975C732.852 772.295 722.883 763.955 702.947 763.955H682.932ZM802.43 828.768C802.43 799.856 810.849 776.346 827.688 758.236C844.605 740.048 866.924 730.953 894.645 730.953C921.014 730.953 942.221 739.73 958.266 757.283C974.389 774.837 982.451 797.394 982.451 824.955C982.451 853.708 974.072 877.059 957.312 895.01C940.633 912.881 918.751 921.816 891.666 921.816C865.217 921.816 843.732 913.159 827.211 895.844C810.69 878.449 802.43 856.09 802.43 828.768ZM843.771 826.623C843.771 844.574 848.1 859.268 856.758 870.705C865.415 882.063 877.29 887.742 892.381 887.742C907.79 887.742 919.783 882.301 928.361 871.42C936.939 860.459 941.229 845.765 941.229 827.338C941.229 808.117 937.059 792.946 928.719 781.826C920.379 770.627 908.624 765.027 893.453 765.027C878.044 765.027 865.892 770.746 856.996 782.184C848.18 793.621 843.771 808.434 843.771 826.623ZM1052.86 734.051V918.6H1013.55V734.051H1052.86ZM1247.9 918.6H1202.62L1173.67 870.586C1167.71 860.658 1162.83 854.264 1159.02 851.404C1155.21 848.545 1151.15 847.115 1146.87 847.115H1134.95V918.6H1095.63V734.051H1160.33C1204.25 734.051 1226.21 750.73 1226.21 784.09C1226.21 796.639 1222.52 807.402 1215.13 816.377C1207.83 825.352 1197.74 831.667 1184.87 835.32V835.797C1193.37 838.656 1202.78 848.029 1213.11 863.914L1247.9 918.6ZM1134.95 763.955V817.092H1154.25C1163.47 817.092 1170.85 814.431 1176.41 809.109C1182.05 803.708 1184.87 796.997 1184.87 788.975C1184.87 772.295 1174.9 763.955 1154.97 763.955H1134.95ZM1426.13 918.6H1383.24L1369.42 876.305H1302.34L1288.76 918.6H1246.11L1313.66 734.051H1359.89L1426.13 918.6ZM1360.13 845.924L1339.16 781.945C1337.81 777.895 1336.85 772.533 1336.3 765.861H1335.23C1334.75 771.262 1333.68 776.465 1332.01 781.469L1310.92 845.924H1360.13ZM1613.54 918.6H1573.27L1495.11 799.221C1491.06 793.025 1488.12 788.021 1486.3 784.209H1485.7C1486.42 790.563 1486.77 800.372 1486.77 813.637V918.6H1449.48V734.051H1492.37L1567.67 850.094C1572.67 857.798 1575.73 862.683 1576.84 864.748H1577.44C1576.65 860.3 1576.25 851.801 1576.25 839.252V734.051H1613.54V918.6ZM1765.8 918.6H1656.55V734.051H1761.51V766.219H1695.87V809.705H1756.87V841.754H1695.87V886.432H1765.8V918.6ZM1944.39 918.6H1897.69L1864.57 857.361C1863.38 855.137 1862.15 851.126 1860.88 845.328H1860.4C1859.76 848.188 1858.33 852.318 1856.11 857.719L1822.87 918.6H1775.81L1835.02 826.266L1780.93 734.051H1828.83L1856.35 790.523C1858.57 795.13 1860.48 800.214 1862.07 805.773H1862.54C1864.21 800.77 1866.24 795.488 1868.62 789.928L1899 734.051H1942.96L1887.21 825.551L1944.39 918.6ZM2006.35 854.264V918.6H1967.03V734.051H2030.53C2076.44 734.051 2099.39 753.51 2099.39 792.43C2099.39 811.333 2092.44 826.504 2078.54 837.941C2064.72 849.299 2047.41 854.74 2026.6 854.264H2006.35ZM2006.35 764.551V824.121H2023.38C2046.5 824.121 2058.05 814.074 2058.05 793.979C2058.05 774.36 2046.62 764.551 2023.74 764.551H2006.35ZM2236.64 918.6H2127.39V734.051H2232.36V766.219H2166.71V809.705H2227.71V841.754H2166.71V886.432H2236.64V918.6ZM2419.29 918.6H2374.01L2345.06 870.586C2339.11 860.658 2334.22 854.264 2330.41 851.404C2326.6 848.545 2322.54 847.115 2318.26 847.115H2306.34V918.6H2267.03V734.051H2331.72C2375.64 734.051 2397.6 750.73 2397.6 784.09C2397.6 796.639 2393.91 807.402 2386.52 816.377C2379.22 825.352 2369.13 831.667 2356.26 835.32V835.797C2364.76 838.656 2374.17 848.029 2384.5 863.914L2419.29 918.6ZM2306.34 763.955V817.092H2325.64C2334.86 817.092 2342.24 814.431 2347.8 809.109C2353.44 803.708 2356.26 796.997 2356.26 788.975C2356.26 772.295 2346.29 763.955 2326.36 763.955H2306.34ZM2564.76 766.219H2512.1V918.6H2472.66V766.219H2420.12V734.051H2564.76V766.219Z" fill="#201D1D"/>
<path d="M2459.8 310.599C2279.5 305.599 1387.5 275.799 1204.4 269.699C1186.4 269.099 1171.6 296.799 1171.6 331.299V490.499C1171.6 524.499 1186 552.099 1203.9 552.099H2459.4C2477.2 552.099 2491.7 524.499 2491.7 490.499V372.199C2491.7 338.499 2477.5 311.099 2459.8 310.599Z" fill="#1148D1"/>
<path d="M1270.5 513.699L1319.4 488.099C1321.27 487.118 1323.34 486.606 1325.45 486.606C1327.56 486.606 1329.63 487.118 1331.5 488.099L1380.2 513.799C1382.35 514.938 1384.77 515.452 1387.2 515.282C1389.62 515.113 1391.95 514.266 1393.92 512.839C1395.89 511.413 1397.42 509.462 1398.33 507.21C1399.25 504.958 1399.51 502.495 1399.1 500.099L1389.9 445.799C1389.56 443.726 1389.71 441.601 1390.36 439.601C1391 437.601 1392.11 435.783 1393.6 434.299L1433.1 395.899C1434.84 394.214 1436.08 392.075 1436.67 389.724C1437.26 387.373 1437.18 384.903 1436.45 382.594C1435.71 380.285 1434.34 378.228 1432.49 376.656C1430.65 375.085 1428.4 374.06 1426 373.699L1371.5 365.699C1369.4 365.406 1367.4 364.594 1365.69 363.337C1363.98 362.08 1362.61 360.418 1361.7 358.499L1337.4 309.099C1336.34 306.901 1334.67 305.048 1332.6 303.751C1330.54 302.454 1328.14 301.766 1325.7 301.766C1323.26 301.766 1320.87 302.454 1318.8 303.751C1316.73 305.048 1315.07 306.901 1314 309.099L1289.5 358.399C1288.59 360.304 1287.21 361.952 1285.5 363.191C1283.79 364.431 1281.8 365.224 1279.7 365.499L1225.2 373.399C1222.8 373.745 1220.53 374.758 1218.68 376.324C1216.82 377.889 1215.43 379.945 1214.68 382.256C1213.94 384.568 1213.85 387.043 1214.43 389.402C1215.02 391.76 1216.26 393.907 1218 395.599L1257.3 434.099C1258.82 435.564 1259.96 437.376 1260.62 439.38C1261.28 441.383 1261.45 443.518 1261.1 445.599L1251.7 499.899C1251.28 502.289 1251.53 504.749 1252.43 507.002C1253.34 509.255 1254.85 511.21 1256.81 512.646C1258.77 514.082 1261.08 514.942 1263.5 515.128C1265.92 515.314 1268.35 514.819 1270.5 513.699Z" fill="#F6FF00"/>
<path d="M1522.4 520.898L1571.2 495.298C1573.07 494.317 1575.14 493.805 1577.25 493.805C1579.36 493.805 1581.43 494.317 1583.3 495.298L1632 520.998C1634.15 522.137 1636.57 522.651 1639 522.481C1641.42 522.312 1643.75 521.465 1645.72 520.039C1647.69 518.612 1649.22 516.662 1650.13 514.41C1651.05 512.157 1651.31 509.694 1650.9 507.298L1641.7 452.998C1641.35 450.917 1641.52 448.782 1642.18 446.779C1642.84 444.775 1643.98 442.963 1645.5 441.498L1685 403.098C1686.74 401.406 1687.98 399.259 1688.57 396.901C1689.15 394.543 1689.07 392.067 1688.32 389.755C1687.57 387.444 1686.18 385.389 1684.32 383.823C1682.47 382.257 1680.21 381.244 1677.8 380.898L1623.3 372.898C1621.21 372.572 1619.23 371.747 1617.52 370.494C1615.82 369.241 1614.44 367.596 1613.5 365.698L1589.2 316.298C1588.14 314.1 1586.47 312.247 1584.4 310.95C1582.34 309.653 1579.94 308.965 1577.5 308.965C1575.06 308.965 1572.67 309.653 1570.6 310.95C1568.53 312.247 1566.86 314.1 1565.8 316.298L1541.4 365.598C1540.47 367.493 1539.09 369.131 1537.38 370.369C1535.68 371.607 1533.69 372.406 1531.6 372.698L1477 380.598C1474.59 380.944 1472.33 381.957 1470.48 383.523C1468.62 385.089 1467.23 387.144 1466.48 389.455C1465.73 391.767 1465.65 394.243 1466.23 396.601C1466.82 398.96 1468.06 401.107 1469.8 402.798L1509.2 441.298C1510.69 442.782 1511.8 444.6 1512.44 446.6C1513.09 448.6 1513.24 450.725 1512.9 452.798L1503.5 507.098C1503.1 509.492 1503.38 511.95 1504.3 514.196C1505.22 516.442 1506.74 518.39 1508.7 519.821C1510.66 521.252 1512.98 522.11 1515.4 522.301C1517.82 522.491 1520.24 522.005 1522.4 520.898V520.898Z" fill="#F6FF00"/>
<path d="M1776.4 522.3L1825.2 496.7C1827.07 495.719 1829.14 495.206 1831.25 495.206C1833.36 495.206 1835.43 495.719 1837.3 496.7L1886.1 522.4C1888.25 523.539 1890.67 524.053 1893.1 523.883C1895.52 523.713 1897.85 522.867 1899.82 521.44C1901.79 520.014 1903.32 518.063 1904.23 515.811C1905.15 513.559 1905.41 511.096 1905 508.7L1895.7 454.4C1895.35 452.319 1895.52 450.184 1896.18 448.18C1896.84 446.177 1897.98 444.365 1899.5 442.9L1939 404.5C1940.75 402.808 1941.98 400.661 1942.57 398.303C1943.15 395.944 1943.07 393.469 1942.32 391.157C1941.57 388.846 1940.18 386.79 1938.32 385.225C1936.47 383.659 1934.21 382.646 1931.8 382.3L1877.3 374.3C1875.2 373.99 1873.21 373.171 1871.51 371.917C1869.8 370.662 1868.42 369.008 1867.5 367.1L1843.2 317.7C1842.13 315.529 1840.46 313.701 1838.41 312.424C1836.35 311.146 1833.97 310.469 1831.55 310.469C1829.13 310.469 1826.75 311.146 1824.69 312.424C1822.64 313.701 1820.98 315.529 1819.9 317.7L1795.4 367C1794.47 368.895 1793.09 370.533 1791.38 371.771C1789.68 373.008 1787.69 373.808 1785.6 374.1L1731.1 382C1728.69 382.33 1726.41 383.332 1724.54 384.892C1722.67 386.451 1721.27 388.505 1720.51 390.819C1719.75 393.133 1719.66 395.615 1720.24 397.981C1720.82 400.347 1722.05 402.502 1723.8 404.2L1763.2 442.7C1764.72 444.159 1765.86 445.974 1766.51 447.982C1767.15 449.99 1767.29 452.127 1766.9 454.2L1757.5 508.5C1755.7 519.1 1766.9 527.3 1776.4 522.3Z" fill="#F6FF00"/>
<path d="M2023 525.198L2071.8 499.599C2073.67 498.618 2075.74 498.105 2077.85 498.105C2079.96 498.105 2082.03 498.618 2083.9 499.599L2132.6 525.299C2134.75 526.466 2137.19 527.002 2139.63 526.846C2142.07 526.69 2144.42 525.848 2146.4 524.417C2148.39 522.986 2149.93 521.024 2150.85 518.756C2151.77 516.489 2152.03 514.008 2151.6 511.599L2142.3 457.299C2141.95 455.217 2142.12 453.083 2142.78 451.079C2143.44 449.075 2144.58 447.263 2146.1 445.799L2185.6 407.399C2187.34 405.707 2188.58 403.56 2189.17 401.201C2189.75 398.843 2189.67 396.367 2188.92 394.056C2188.17 391.744 2186.78 389.689 2184.92 388.123C2183.07 386.558 2180.81 385.544 2178.4 385.198L2123.9 377.198C2121.8 376.888 2119.81 376.07 2118.11 374.815C2116.4 373.56 2115.02 371.907 2114.1 369.999L2089.8 320.599C2088.72 318.427 2087.06 316.6 2085.01 315.322C2082.95 314.044 2080.57 313.367 2078.15 313.367C2075.73 313.367 2073.35 314.044 2071.29 315.322C2069.24 316.6 2067.57 318.427 2066.5 320.599L2042 369.899C2041.07 371.793 2039.69 373.431 2037.98 374.669C2036.28 375.907 2034.29 376.707 2032.2 376.999L1977.6 384.899C1975.19 385.244 1972.93 386.258 1971.08 387.823C1969.22 389.389 1967.83 391.444 1967.08 393.756C1966.33 396.067 1966.25 398.543 1966.83 400.901C1967.42 403.26 1968.66 405.407 1970.4 407.099L2009.8 445.599C2011.32 447.057 2012.46 448.873 2013.1 450.88C2013.75 452.888 2013.89 455.025 2013.5 457.099L2004.1 511.399C2003.7 513.793 2003.98 516.25 2004.9 518.496C2005.81 520.743 2007.34 522.69 2009.3 524.121C2011.26 525.552 2013.58 526.411 2016 526.601C2018.42 526.791 2020.84 526.306 2023 525.198V525.198Z" fill="#F6FF00"/>
<path d="M2274 525.199L2322.8 499.599C2324.67 498.618 2326.74 498.106 2328.85 498.106C2330.96 498.106 2333.03 498.618 2334.9 499.599L2383.6 525.299C2385.75 526.438 2388.17 526.952 2390.6 526.782C2393.02 526.613 2395.35 525.766 2397.32 524.339C2399.29 522.913 2400.82 520.962 2401.73 518.71C2402.65 516.458 2402.91 513.995 2402.5 511.599L2393.3 457.299C2392.96 455.226 2393.11 453.101 2393.76 451.101C2394.4 449.101 2395.51 447.283 2397 445.799L2436.6 407.399C2438.34 405.707 2439.58 403.56 2440.17 401.202C2440.75 398.843 2440.67 396.368 2439.92 394.056C2439.17 391.745 2437.78 389.689 2435.92 388.124C2434.07 386.558 2431.81 385.545 2429.4 385.199L2374.9 377.199C2372.8 376.906 2370.8 376.094 2369.09 374.837C2367.38 373.58 2366.01 371.918 2365.1 369.999L2340.8 320.599C2339.74 318.401 2338.07 316.548 2336 315.251C2333.93 313.954 2331.54 313.266 2329.1 313.266C2326.66 313.266 2324.26 313.954 2322.2 315.251C2320.13 316.548 2318.46 318.401 2317.4 320.599L2293 369.899C2292.06 371.807 2290.67 373.453 2288.94 374.691C2287.21 375.93 2285.21 376.723 2283.1 376.999L2228.6 384.899C2226.19 385.245 2223.93 386.258 2222.08 387.824C2220.22 389.389 2218.83 391.445 2218.08 393.756C2217.33 396.068 2217.25 398.543 2217.83 400.902C2218.42 403.26 2219.66 405.407 2221.4 407.099L2260.8 445.599C2262.29 447.083 2263.4 448.901 2264.04 450.901C2264.69 452.901 2264.84 455.026 2264.5 457.099L2255.1 511.399C2254.7 513.793 2254.98 516.25 2255.9 518.497C2256.81 520.743 2258.34 522.691 2260.3 524.122C2262.26 525.553 2264.58 526.411 2267 526.602C2269.42 526.792 2271.84 526.306 2274 525.199V525.199Z" fill="#F6FF00"/>
<path d="M299.1 1260.5L1089.1 1267.1C1110.08 1267.26 1130.2 1275.48 1145.29 1290.05C1160.39 1304.62 1169.3 1324.44 1170.2 1345.4L1219 2491.2C1219.35 2499.28 1218.07 2507.36 1215.23 2514.94C1212.4 2522.51 1208.06 2529.44 1202.49 2535.31C1196.92 2541.18 1190.23 2545.87 1182.81 2549.1C1175.39 2552.33 1167.39 2554.03 1159.3 2554.1L253.8 2563.1C246.191 2563.18 238.642 2561.74 231.595 2558.87C224.547 2556.01 218.141 2551.76 212.751 2546.39C207.361 2541.02 203.095 2534.63 200.202 2527.59C197.309 2520.55 195.846 2513.01 195.9 2505.4L205.4 1352.7C205.638 1328.06 215.633 1304.52 233.197 1287.24C250.761 1269.95 274.46 1260.34 299.1 1260.5Z" fill="url(#paint2_linear_946_4344)"/>
<path d="M386.2 2545.2L284.9 2543C268.454 2542.61 252.819 2535.78 241.355 2523.98C229.892 2512.18 223.517 2496.35 223.6 2479.9L224.9 2326.9C224.9 2326.21 225.174 2325.55 225.662 2325.06C226.15 2324.57 226.811 2324.3 227.5 2324.3C228.173 2324.32 228.808 2324.61 229.275 2325.09C229.741 2325.58 230.001 2326.23 230 2326.9L228.8 2479.9C228.717 2495 234.555 2509.53 245.062 2520.37C255.568 2531.21 269.907 2537.51 285 2537.9L386.3 2540C386.99 2540 387.651 2540.27 388.139 2540.76C388.627 2541.25 388.9 2541.91 388.9 2542.6C388.875 2543.3 388.579 2543.96 388.075 2544.44C387.572 2544.93 386.9 2545.2 386.2 2545.2V2545.2Z" fill="#BDD0FB"/>
<path d="M227.8 2282.1C227.463 2282.1 227.13 2282.03 226.82 2281.9C226.509 2281.77 226.229 2281.57 225.996 2281.33C225.762 2281.09 225.58 2280.8 225.461 2280.49C225.341 2280.17 225.286 2279.84 225.3 2279.5L225.5 2254.7C225.5 2254.36 225.567 2254.03 225.699 2253.72C225.831 2253.41 226.024 2253.13 226.267 2252.9C226.51 2252.66 226.797 2252.48 227.112 2252.36C227.427 2252.24 227.763 2252.19 228.1 2252.2C228.772 2252.23 229.408 2252.51 229.874 2253C230.34 2253.48 230.6 2254.13 230.6 2254.8L230.4 2279.6C230.374 2280.27 230.089 2280.91 229.604 2281.37C229.119 2281.84 228.472 2282.1 227.8 2282.1V2282.1Z" fill="#BDD0FB"/>
<path d="M301.6 1251.3C409.4 1266.8 780 1315.1 1086.9 1294.1C1090.22 1293.86 1093.56 1294.28 1096.71 1295.36C1099.87 1296.43 1102.77 1298.13 1105.25 1300.35C1107.74 1302.57 1109.75 1305.27 1111.16 1308.29C1112.58 1311.3 1113.37 1314.57 1113.5 1317.9L1165.2 2468.8C1165.53 2476.37 1162.86 2483.77 1157.76 2489.39C1152.67 2495 1145.57 2498.39 1138 2498.8C1008.9 2505.3 477.4 2530.4 288.1 2509C282.549 2508.36 277.425 2505.71 273.701 2501.54C269.977 2497.38 267.913 2491.99 267.9 2486.4L270.8 1277.9C270.803 1274.04 271.636 1270.22 273.244 1266.71C274.851 1263.2 277.196 1260.08 280.118 1257.56C283.04 1255.03 286.471 1253.17 290.178 1252.09C293.885 1251.01 297.78 1250.74 301.6 1251.3V1251.3Z" fill="#0050FF"/>
<path opacity="0.6" d="M312.9 1281.2C416.6 1296.2 773.3 1342.6 1068.6 1322.4C1071.8 1322.18 1075.01 1322.61 1078.04 1323.65C1081.07 1324.68 1083.87 1326.32 1086.26 1328.45C1088.65 1330.58 1090.6 1333.17 1091.98 1336.06C1093.36 1338.96 1094.15 1342.1 1094.3 1345.3L1144 2452.9C1144.3 2460.18 1141.72 2467.29 1136.81 2472.68C1131.91 2478.07 1125.08 2481.31 1117.8 2481.7C993.6 2488 482.1 2512.2 299.9 2491.6C294.552 2490.98 289.618 2488.42 286.04 2484.4C282.462 2480.38 280.489 2475.18 280.5 2469.8L283.2 1306.9C283.221 1303.18 284.037 1299.51 285.593 1296.13C287.149 1292.75 289.409 1289.75 292.221 1287.31C295.033 1284.88 298.333 1283.07 301.9 1282.02C305.466 1280.97 309.217 1280.69 312.9 1281.2V1281.2Z" fill="white"/>
<g opacity="0.6">
<path d="M1053.4 1419.6C1060.9 1419.6 1066.9 1416.1 1066.6 1411.7C1066.3 1407.3 1060 1403.7 1052.5 1403.5L393.8 1392.9C386.3 1392.8 384 1397.5 388.6 1403.4C393.2 1409.3 403.2 1414.2 410.7 1414.3L1053.4 1419.6Z" fill="white"/>
</g>
<g opacity="0.6">
<path d="M393.5 1437.1C386 1437 383.6 1441.8 388.2 1447.7C392.8 1453.6 402.8 1458.5 410.3 1458.5L1053.1 1463.8C1060.6 1463.9 1066.5 1460.4 1066.2 1456C1065.9 1451.6 1059.7 1447.9 1052.2 1447.8L393.5 1437.1Z" fill="white"/>
</g>
<path d="M499.9 1840.1H499.6L410.7 1841.4C397.9 1841.6 387.1 1833.1 385.6 1821.5L376 1747.1C375.718 1744.9 375.892 1742.66 376.512 1740.52C377.131 1738.39 378.182 1736.41 379.6 1734.7C381.281 1732.67 383.349 1731 385.685 1729.78C388.02 1728.56 390.575 1727.82 393.2 1727.6L422.3 1724.5C447 1721.8 475 1718.7 491.4 1718.1H491.8C503.6 1717.8 513.9 1724.8 517 1735.1C522 1752.1 522.4 1784.6 522.3 1819.1C522.3 1830.5 512.3 1839.8 499.9 1840.1ZM393.8 1734.8C392.157 1734.91 390.555 1735.36 389.093 1736.11C387.63 1736.87 386.339 1737.92 385.3 1739.2C384.485 1740.16 383.878 1741.27 383.517 1742.48C383.155 1743.68 383.048 1744.95 383.2 1746.2L392.8 1820.6C393.8 1828.5 401.5 1834.3 410.6 1834.2L499.5 1832.9H499.7C508.2 1832.7 515.1 1826.5 515.1 1819.1C515.1 1785.1 514.8 1753.3 510 1737.2C507.9 1730 500 1724.9 491.7 1725.4C475.5 1726 446.4 1729.2 423.1 1731.7C411.7 1733 401.4 1734.1 393.8 1734.8V1734.8Z" fill="white"/>
<path opacity="0.6" d="M403.6 1742C422.2 1740.3 462.7 1735.2 481.9 1734.5C490.1 1734.2 497.4 1739 499.4 1746C503.5 1759.6 503.7 1787 503.6 1812.3C503.6 1819.9 496.8 1826.1 488.3 1826.2L417.3 1827.3C408.5 1827.4 401.1 1821.6 400.1 1813.9L392.5 1754.4C391.7 1748.3 396.7 1742.7 403.6 1742Z" fill="white"/>
<g opacity="0.6">
<path d="M582.4 1760.9C574.9 1760.9 570.4 1766.8 572.5 1774L577.7 1791.9C579.8 1799.1 587.6 1804.9 595.1 1804.7L1030 1794.2C1031.78 1794.16 1033.54 1793.77 1035.16 1793.04C1036.79 1792.31 1038.25 1791.26 1039.46 1789.95C1040.68 1788.65 1041.62 1787.11 1042.22 1785.43C1042.83 1783.76 1043.09 1781.98 1043 1780.2L1042.7 1774.3C1042.52 1770.65 1040.95 1767.2 1038.31 1764.67C1035.67 1762.14 1032.16 1760.72 1028.5 1760.7L582.4 1760.9Z" fill="white"/>
</g>
<path d="M407.6 1753.6C409.151 1752.64 410.878 1752 412.678 1751.72C414.479 1751.44 416.318 1751.52 418.088 1751.96C419.857 1752.39 421.521 1753.18 422.983 1754.27C424.445 1755.36 425.674 1756.73 426.6 1758.3L444.9 1789.3C445.316 1789.99 445.914 1790.55 446.629 1790.93C447.343 1791.3 448.147 1791.47 448.952 1791.42C449.757 1791.37 450.533 1791.1 451.194 1790.64C451.855 1790.17 452.376 1789.54 452.7 1788.8L493.8 1690.9C494.245 1689.87 495.031 1689.02 496.028 1688.5C497.024 1687.97 498.169 1687.81 499.271 1688.03C500.373 1688.26 501.365 1688.85 502.081 1689.72C502.796 1690.59 503.191 1691.67 503.2 1692.8C503.4 1722.4 496.9 1778.9 450.8 1827.2C450.8 1827.2 424.4 1817.7 402.3 1772.1C400.769 1768.9 400.462 1765.25 401.439 1761.84C402.415 1758.43 404.607 1755.5 407.6 1753.6V1753.6Z" fill="black"/>
<path d="M503.3 1640.5H503.1L414.2 1641.8C401.3 1642 390.6 1633.4 389.1 1621.9L379.5 1547.5C379.213 1545.29 379.376 1543.04 379.977 1540.89C380.578 1538.75 381.606 1536.74 383 1535C384.688 1532.98 386.758 1531.31 389.092 1530.09C391.426 1528.88 393.977 1528.13 396.6 1527.9L425.8 1524.8C450.4 1522.1 478.4 1519.1 494.9 1518.5H495.3C507 1518.2 517.3 1525.1 520.4 1535.4C525.5 1552.5 525.8 1584.9 525.8 1619.5C525.8 1630.8 515.7 1640.2 503.3 1640.5ZM397.3 1535.1C393.953 1535.41 390.864 1537.03 388.7 1539.6C387.9 1540.54 387.308 1541.65 386.963 1542.84C386.619 1544.03 386.529 1545.27 386.7 1546.5L396.3 1620.9C397.3 1628.8 404.9 1634.7 414.1 1634.5L503 1633.2H503.1C511.6 1633 518.5 1626.9 518.5 1619.5C518.6 1585.5 518.2 1553.6 513.5 1537.5C511.3 1530.4 503.5 1525.2 495.2 1525.7C479 1526.3 449.9 1529.5 426.5 1532.1L397.3 1535.1V1535.1Z" fill="white"/>
<path opacity="0.6" d="M407 1542.4C425.7 1540.7 466.1 1535.6 485.4 1534.9C493.5 1534.6 500.8 1539.3 502.9 1546.3C506.9 1560 507.1 1587.4 507.1 1612.7C507.1 1620.2 500.3 1626.4 491.8 1626.6L420.7 1627.6C412 1627.7 404.6 1621.9 403.6 1614.2L395.9 1554.8C395.1 1548.6 400.1 1543 407 1542.4Z" fill="white"/>
<g opacity="0.6">
<path d="M585.8 1561.2C578.3 1561.2 573.9 1567.1 576 1574.3L581.2 1592.2C583.2 1599.5 591.1 1605.2 598.6 1605L1033.4 1594.5C1035.18 1594.46 1036.93 1594.07 1038.55 1593.35C1040.18 1592.62 1041.64 1591.59 1042.86 1590.29C1044.08 1589 1045.03 1587.48 1045.65 1585.81C1046.28 1584.15 1046.57 1582.38 1046.5 1580.6L1046.2 1574.7C1045.97 1571.05 1044.37 1567.61 1041.72 1565.09C1039.07 1562.57 1035.56 1561.14 1031.9 1561.1L585.8 1561.2Z" fill="white"/>
</g>
<path d="M411.1 1554C412.644 1553.04 414.362 1552.41 416.156 1552.13C417.949 1551.85 419.78 1551.93 421.541 1552.37C423.303 1552.8 424.959 1553.59 426.411 1554.68C427.864 1555.77 429.084 1557.13 430 1558.7L448.3 1589.7C448.724 1590.39 449.33 1590.95 450.05 1591.31C450.77 1591.68 451.578 1591.84 452.383 1591.78C453.189 1591.72 453.962 1591.43 454.618 1590.96C455.274 1590.49 455.787 1589.84 456.1 1589.1L497.3 1491.3C499.3 1486.4 506.6 1487.9 506.6 1493.2C506.9 1522.8 500.4 1579.2 454.2 1627.5C454.2 1627.5 427.9 1618 405.8 1572.4C404.252 1569.22 403.937 1565.58 404.916 1562.18C405.895 1558.78 408.098 1555.87 411.1 1554V1554Z" fill="black"/>
<path d="M504.5 2030.6H504.2L415.3 2031.9C402.5 2032.1 391.7 2023.5 390.2 2012L380.6 1937.6C380.318 1935.4 380.492 1933.16 381.111 1931.02C381.73 1928.89 382.782 1926.91 384.2 1925.2C385.881 1923.17 387.949 1921.5 390.284 1920.28C392.62 1919.06 395.175 1918.32 397.8 1918.1L426.9 1915C451.6 1912.3 479.6 1909.2 496 1908.6H496.4C508.2 1908.3 518.5 1915.3 521.6 1925.6C526.6 1942.6 527 1975.1 526.9 2009.6C526.9 2021 516.9 2030.3 504.5 2030.6ZM398.4 1925.3C396.746 1925.43 395.134 1925.88 393.658 1926.63C392.181 1927.39 390.87 1928.43 389.8 1929.7C389.023 1930.68 388.446 1931.8 388.103 1933C387.76 1934.2 387.657 1935.46 387.8 1936.7L397.4 2011.1C398.4 2019 406.1 2024.8 415.2 2024.7L504.1 2023.4H504.3C512.8 2023.2 519.7 2017 519.7 2009.6C519.7 1975.6 519.4 1943.8 514.6 1927.7C512.5 1920.5 504.6 1915.5 496.3 1915.9C480.1 1916.5 451 1919.7 427.7 1922.2C416.3 1923.5 406 1924.6 398.4 1925.3V1925.3Z" fill="white"/>
<path opacity="0.6" d="M408.2 1932.5C426.8 1930.8 467.3 1925.7 486.5 1925C494.7 1924.7 502 1929.5 504 1936.5C508.1 1950.1 508.3 1977.5 508.2 2002.8C508.2 2010.4 501.4 2016.6 492.9 2016.7L421.9 2017.7C413.1 2017.9 405.7 2012.1 404.7 2004.4L397.1 1944.9C396.3 1938.8 401.3 1933.2 408.2 1932.5Z" fill="white"/>
<g opacity="0.6">
<path d="M586.9 1951.4C579.4 1951.4 575 1957.3 577.1 1964.5L582.3 1982.4C584.4 1989.6 592.2 1995.4 599.7 1995.2L1034.6 1984.7C1036.38 1984.65 1038.13 1984.24 1039.75 1983.51C1041.37 1982.78 1042.82 1981.73 1044.03 1980.42C1045.24 1979.12 1046.18 1977.59 1046.79 1975.92C1047.41 1974.25 1047.68 1972.48 1047.6 1970.7L1047.3 1964.8C1047.12 1961.15 1045.55 1957.7 1042.91 1955.17C1040.27 1952.64 1036.76 1951.22 1033.1 1951.2L586.9 1951.4Z" fill="white"/>
</g>
<path d="M412.2 1944.1C413.751 1943.14 415.478 1942.5 417.279 1942.22C419.079 1941.94 420.918 1942.02 422.688 1942.46C424.457 1942.89 426.122 1943.68 427.583 1944.77C429.045 1945.86 430.275 1947.23 431.2 1948.8L449.5 1979.8C449.916 1980.49 450.514 1981.05 451.229 1981.43C451.943 1981.8 452.747 1981.97 453.552 1981.92C454.358 1981.87 455.133 1981.6 455.794 1981.14C456.455 1980.67 456.976 1980.04 457.3 1979.3L498.4 1881.4C498.845 1880.37 499.632 1879.52 500.628 1879C501.624 1878.47 502.769 1878.31 503.871 1878.53C504.973 1878.76 505.965 1879.35 506.681 1880.22C507.396 1881.09 507.791 1882.17 507.8 1883.3C508 1912.9 501.5 1969.4 455.4 2017.7C455.4 2017.7 429 2008.2 406.9 1962.5C405.375 1959.32 405.072 1955.68 406.049 1952.29C407.026 1948.9 409.215 1945.98 412.2 1944.1V1944.1Z" fill="black"/>
<path d="M500.5 2213.8H500.3L411.4 2215C398.6 2215.2 387.8 2206.7 386.3 2195.1L376.7 2120.7C376.417 2118.5 376.591 2116.26 377.211 2114.13C377.83 2111.99 378.881 2110.01 380.3 2108.3C381.972 2106.26 384.039 2104.58 386.376 2103.36C388.713 2102.14 391.272 2101.41 393.9 2101.2L423 2098.1C446.4 2095.6 475.7 2092.4 492.1 2091.8C503.8 2091.4 514.6 2098.3 517.7 2108.7C522.7 2125.8 523.1 2158.2 523 2192.7C523 2204.1 512.9 2213.5 500.5 2213.8ZM394.5 2108.4C392.846 2108.53 391.234 2108.98 389.757 2109.74C388.281 2110.49 386.969 2111.53 385.9 2112.8C384.34 2114.78 383.621 2117.29 383.9 2119.8L393.5 2194.2C394.5 2202.1 402.2 2207.9 411.3 2207.8L500.2 2206.5C508.6 2206.2 515.8 2200.2 515.8 2192.7C515.8 2158.7 515.5 2126.9 510.7 2110.8C508.6 2103.6 500.7 2098.7 492.4 2099C476.2 2099.6 447.1 2102.8 423.8 2105.3L394.5 2108.4V2108.4Z" fill="white"/>
<path opacity="0.6" d="M404.3 2115.7C422.9 2113.9 463.4 2108.8 482.6 2108.1C490.8 2107.8 498.1 2112.6 500.1 2119.6C504.2 2133.3 504.4 2160.7 504.3 2185.9C504.3 2193.5 497.5 2199.7 489 2199.8L418 2200.9C409.2 2201 401.8 2195.2 400.8 2187.5L393.2 2128C392.4 2121.9 397.4 2116.3 404.3 2115.7Z" fill="white"/>
<g opacity="0.6">
<path d="M583 2134.5C575.5 2134.5 571.1 2140.4 573.2 2147.6L578.4 2165.5C580.5 2172.7 588.3 2178.5 595.8 2178.3L1030.7 2167.8C1032.47 2167.75 1034.21 2167.35 1035.82 2166.62C1037.44 2165.89 1038.89 2164.85 1040.1 2163.56C1041.3 2162.27 1042.25 2160.75 1042.86 2159.09C1043.48 2157.43 1043.77 2155.67 1043.7 2153.9L1043.4 2148C1043.22 2144.34 1041.65 2140.88 1039.02 2138.33C1036.38 2135.79 1032.87 2134.35 1029.2 2134.3L583 2134.5Z" fill="white"/>
</g>
<path d="M408.3 2127.3C409.841 2126.32 411.562 2125.67 413.362 2125.37C415.161 2125.07 417.002 2125.14 418.775 2125.57C420.547 2126 422.216 2126.78 423.68 2127.87C425.145 2128.96 426.376 2130.33 427.3 2131.9L445.6 2162.9C446.015 2163.59 446.613 2164.15 447.328 2164.53C448.043 2164.9 448.847 2165.07 449.652 2165.02C450.457 2164.97 451.232 2164.7 451.893 2164.24C452.554 2163.77 453.076 2163.14 453.4 2162.4L494.5 2064.6C494.94 2063.57 495.718 2062.73 496.705 2062.2C497.691 2061.68 498.826 2061.51 499.923 2061.72C501.02 2061.93 502.012 2062.51 502.735 2063.36C503.458 2064.21 503.869 2065.28 503.9 2066.4C504.1 2096.1 497.6 2152.5 451.4 2200.8C451.4 2200.8 425.1 2191.3 403 2145.7C401.452 2142.52 401.137 2138.88 402.115 2135.48C403.094 2132.08 405.297 2129.17 408.3 2127.3V2127.3Z" fill="black"/>
<path d="M495 2402.6H494.8L405.9 2403.9C393 2404.1 382.3 2395.6 380.8 2384L371.2 2309.6C370.922 2307.4 371.088 2305.17 371.69 2303.04C372.291 2300.91 373.315 2298.93 374.7 2297.2C376.388 2295.18 378.458 2293.51 380.792 2292.29C383.126 2291.07 385.677 2290.33 388.3 2290.1V2290.1L417.4 2287C442.1 2284.3 470.1 2281.2 486.6 2280.6C498.7 2280.5 509 2287.2 512.1 2297.6C517.2 2314.6 517.5 2347.1 517.5 2381.6C517.5 2393 507.4 2402.3 495 2402.6ZM389 2297.3C387.344 2297.41 385.728 2297.86 384.25 2298.62C382.772 2299.38 381.462 2300.42 380.4 2301.7C378.805 2303.66 378.05 2306.18 378.3 2308.7L388 2383.1C389 2391 396.6 2396.8 405.7 2396.7L494.7 2395.4H494.8C503.3 2395.2 510.2 2389 510.2 2381.6C510.3 2347.6 509.9 2315.8 505.1 2299.7C503 2292.5 495.2 2287.7 486.9 2287.9C470.6 2288.5 441.6 2291.7 418.2 2294.2C406.9 2295.5 396.5 2296.6 389 2297.3V2297.3Z" fill="white"/>
<path opacity="0.6" d="M398.7 2304.5C417.4 2302.8 457.8 2297.7 477.1 2297C485.2 2296.7 492.5 2301.5 494.6 2308.5C498.6 2322.1 498.8 2349.5 498.8 2374.8C498.8 2382.4 492 2388.6 483.5 2388.7L412.4 2389.8C403.7 2389.9 396.3 2384.1 395.3 2376.4L387.6 2316.9C386.8 2310.8 391.8 2305.2 398.7 2304.5Z" fill="white"/>
<g opacity="0.6">
<path d="M577.5 2323.4C570 2323.4 565.6 2329.3 567.7 2336.5L572.9 2354.4C574.9 2361.6 582.8 2367.4 590.3 2367.2L1025.1 2356.7C1026.88 2356.65 1028.64 2356.24 1030.26 2355.51C1031.89 2354.78 1033.35 2353.73 1034.57 2352.43C1035.78 2351.13 1036.73 2349.6 1037.36 2347.93C1037.98 2346.26 1038.27 2344.48 1038.2 2342.7L1037.9 2336.8C1037.67 2333.15 1036.07 2329.71 1033.42 2327.19C1030.77 2324.67 1027.26 2323.24 1023.6 2323.2L577.5 2323.4Z" fill="white"/>
</g>
<path d="M402.8 2316.2C404.333 2315.23 406.047 2314.57 407.838 2314.28C409.63 2313.98 411.464 2314.05 413.228 2314.48C414.993 2314.91 416.652 2315.69 418.108 2316.78C419.564 2317.86 420.785 2319.23 421.7 2320.8L440 2351.8C440.415 2352.49 441.013 2353.05 441.728 2353.43C442.443 2353.8 443.247 2353.97 444.052 2353.92C444.857 2353.87 445.632 2353.6 446.293 2353.14C446.954 2352.67 447.475 2352.04 447.8 2351.3L489 2253.4C489.395 2252.32 490.164 2251.42 491.168 2250.86C492.171 2250.3 493.341 2250.12 494.467 2250.35C495.592 2250.58 496.598 2251.2 497.301 2252.11C498.004 2253.02 498.359 2254.15 498.3 2255.3C498.6 2284.9 492.1 2341.4 445.9 2389.7C445.9 2389.7 419.6 2380.2 397.5 2334.6C395.952 2331.42 395.637 2327.78 396.615 2324.38C397.594 2320.98 399.797 2318.07 402.8 2316.2V2316.2Z" fill="black"/>
<path d="M744.4 1108.1C716 1088 691.2 1088.2 673.7 1093.2C665.947 1095.42 659.205 1100.26 654.627 1106.9C650.048 1113.54 647.918 1121.56 648.6 1129.6L655.5 1211.9L745.1 1220.6C745.1 1220.6 800 1147.4 744.4 1108.1ZM704.4 1174.1C699.966 1174.08 695.637 1172.74 691.963 1170.26C688.288 1167.78 685.433 1164.26 683.759 1160.16C682.085 1156.05 681.667 1151.54 682.559 1147.19C683.451 1142.85 685.612 1138.87 688.769 1135.75C691.925 1132.64 695.935 1130.53 700.291 1129.7C704.646 1128.87 709.151 1129.34 713.235 1131.07C717.318 1132.8 720.797 1135.7 723.23 1139.41C725.662 1143.12 726.94 1147.47 726.9 1151.9C726.848 1157.82 724.45 1163.48 720.234 1167.64C716.017 1171.81 710.324 1174.13 704.4 1174.1V1174.1Z" fill="url(#paint3_linear_946_4344)"/>
<path d="M663.2 1179.3C662.409 1179.03 661.714 1178.54 661.199 1177.88C660.684 1177.22 660.372 1176.43 660.3 1175.6L659.2 1162.5C659.145 1161.91 659.208 1161.32 659.386 1160.76C659.564 1160.2 659.853 1159.68 660.235 1159.23C660.617 1158.78 661.085 1158.42 661.612 1158.15C662.138 1157.89 662.712 1157.74 663.3 1157.7C664.462 1157.61 665.612 1157.98 666.507 1158.73C667.402 1159.48 667.973 1160.54 668.1 1161.7L669.2 1174.8C669.254 1175.38 669.191 1175.98 669.013 1176.54C668.835 1177.1 668.547 1177.62 668.164 1178.07C667.782 1178.51 667.314 1178.88 666.787 1179.14C666.261 1179.41 665.687 1179.56 665.1 1179.6C664.45 1179.7 663.785 1179.6 663.2 1179.3V1179.3ZM661 1153.7C660.227 1153.39 659.556 1152.87 659.061 1152.2C658.567 1151.52 658.269 1150.73 658.2 1149.9L657.4 1139.9C656.691 1131.73 658.849 1123.57 663.502 1116.82C668.155 1110.07 675.013 1105.14 682.9 1102.9C693.892 1099.7 705.508 1099.29 716.7 1101.7C717.274 1101.82 717.82 1102.05 718.303 1102.38C718.787 1102.71 719.199 1103.14 719.516 1103.63C719.833 1104.13 720.048 1104.68 720.148 1105.26C720.248 1105.83 720.232 1106.43 720.1 1107C719.859 1108.14 719.177 1109.14 718.202 1109.77C717.228 1110.41 716.04 1110.64 714.9 1110.4C705.102 1108.27 694.931 1108.62 685.3 1111.4C679.403 1113.13 674.284 1116.84 670.804 1121.9C667.325 1126.97 665.698 1133.07 666.2 1139.2L667 1149.1C667.035 1149.84 666.89 1150.58 666.577 1151.25C666.265 1151.93 665.793 1152.52 665.204 1152.97C664.614 1153.42 663.924 1153.72 663.191 1153.85C662.459 1153.98 661.707 1153.93 661 1153.7V1153.7Z" fill="#BDD0FB"/>
<path d="M532.7 1264L533.1 1222.6C533.123 1219.22 533.83 1215.87 535.178 1212.77C536.525 1209.67 538.486 1206.87 540.943 1204.54C543.4 1202.22 546.301 1200.41 549.473 1199.24C552.644 1198.06 556.021 1197.54 559.4 1197.7L844.3 1209.8C850.394 1210.04 856.177 1212.56 860.508 1216.85C864.839 1221.15 867.405 1226.91 867.7 1233L869.8 1272.8L532.7 1264Z" fill="url(#paint4_linear_946_4344)"/>
<path d="M627.1 1214.2C626.428 1214.17 625.792 1213.89 625.325 1213.4C624.859 1212.92 624.599 1212.27 624.6 1211.6C624.6 1210.91 624.874 1210.25 625.361 1209.76C625.849 1209.27 626.51 1209 627.2 1209L639.4 1209.2C639.745 1209.19 640.089 1209.24 640.411 1209.37C640.733 1209.49 641.025 1209.69 641.27 1209.93C641.514 1210.17 641.705 1210.47 641.83 1210.79C641.956 1211.11 642.014 1211.45 642 1211.8C641.974 1212.47 641.688 1213.11 641.204 1213.57C640.719 1214.04 640.072 1214.3 639.4 1214.3L627.1 1214.2Z" fill="#BDD0FB"/>
<path d="M546.7 1253.1C545.848 1252.78 545.115 1252.2 544.597 1251.45C544.079 1250.7 543.801 1249.81 543.8 1248.9L544 1232.2C543.986 1228.83 544.651 1225.49 545.957 1222.38C547.263 1219.27 549.182 1216.45 551.6 1214.1C556.49 1209.32 563.064 1206.66 569.9 1206.7L614.9 1207.1C615.49 1207.09 616.077 1207.19 616.624 1207.41C617.171 1207.64 617.666 1207.97 618.079 1208.39C618.492 1208.81 618.813 1209.32 619.023 1209.87C619.233 1210.42 619.328 1211.01 619.3 1211.6C619.3 1212.18 619.186 1212.75 618.965 1213.28C618.744 1213.82 618.42 1214.3 618.011 1214.71C617.602 1215.12 617.118 1215.44 616.584 1215.66C616.05 1215.89 615.478 1216 614.9 1216L569.8 1215.6C565.335 1215.57 561.041 1217.31 557.855 1220.44C554.67 1223.57 552.853 1227.83 552.8 1232.3V1249C552.8 1249.59 552.683 1250.17 552.456 1250.71C552.228 1251.25 551.895 1251.74 551.476 1252.15C551.057 1252.56 550.56 1252.88 550.014 1253.09C549.469 1253.31 548.886 1253.41 548.3 1253.4C547.752 1253.41 547.207 1253.31 546.7 1253.1V1253.1Z" fill="#BDD0FB"/>
<path d="M443.5 1248.1L941.9 1252.2C950.576 1252.3 958.94 1255.45 965.524 1261.1C972.108 1266.75 976.49 1274.54 977.9 1283.1L978.3 1285.5C979.059 1290.05 978.814 1294.7 977.582 1299.15C976.35 1303.59 974.161 1307.71 971.169 1311.21C968.178 1314.72 964.455 1317.53 960.263 1319.44C956.07 1321.36 951.509 1322.33 946.9 1322.3L435.6 1318.1C432.808 1318.08 430.049 1317.49 427.492 1316.37C424.934 1315.24 422.632 1313.62 420.724 1311.58C418.816 1309.54 417.342 1307.13 416.393 1304.51C415.443 1301.88 415.037 1299.09 415.2 1296.3L416.5 1273.5C416.885 1266.61 419.901 1260.13 424.926 1255.41C429.952 1250.68 436.601 1248.06 443.5 1248.1V1248.1Z" fill="url(#paint5_linear_946_4344)"/>
<path d="M2347 2550.5C2374.3 2552.9 2421.7 2556.7 2459.1 2558.4C2481.6 2559.3 2494.5 2557.1 2502 2554.2C2502 2555 2501.9 2555.8 2501.9 2556.5C2501.8 2558.4 2501 2560.21 2499.65 2561.55C2498.31 2562.9 2496.5 2563.7 2494.6 2563.8C2445.68 2566.62 2396.63 2566.68 2347.7 2564C2346.76 2563.93 2345.85 2563.63 2345.06 2563.12C2344.27 2562.61 2343.62 2561.91 2343.18 2561.08C2342.73 2560.26 2342.49 2559.33 2342.5 2558.39C2342.5 2557.45 2342.74 2556.52 2343.2 2555.7C2344.34 2553.88 2345.61 2552.14 2347 2550.5V2550.5Z" fill="url(#paint6_linear_946_4344)"/>
<path d="M2459.1 2558.4C2421.7 2556.7 2374.3 2552.9 2347 2550.5C2373.8 2517.6 2459.1 2495.3 2459.1 2495.3H2483.2C2499.8 2519.2 2502.2 2541.9 2502 2554.2C2494.5 2557.1 2481.6 2559.3 2459.1 2558.4Z" fill="url(#paint7_linear_946_4344)"/>
<path d="M2487.2 2456L2485 2500.6C2484.89 2502.96 2483.96 2505.21 2482.37 2506.96C2480.78 2508.71 2478.64 2509.86 2476.3 2510.2C2470.23 2511.13 2464.03 2510.61 2458.2 2508.7C2456.14 2508.03 2454.29 2506.81 2452.86 2505.17C2451.44 2503.53 2450.48 2501.54 2450.1 2499.4L2442.3 2456H2487.2Z" fill="url(#paint8_linear_946_4344)"/>
<path d="M2800.1 2558C2811.9 2556.4 2817.3 2550.2 2819.5 2543.6V2543.8C2821.2 2550.8 2817.2 2557.9 2809.1 2561.4C2799.3 2565.5 2788.6 2566.2 2780.3 2565.9C2772 2565.6 2763.3 2561.8 2758.8 2555.9H2758.7C2767.8 2560.3 2780.3 2560.8 2800.1 2558Z" fill="url(#paint9_linear_946_4344)"/>
<path d="M2744.2 2455.7H2764C2794.3 2455.1 2813.3 2518.9 2819.5 2543.6C2817.3 2550.2 2811.9 2556.4 2800.1 2558C2780.3 2560.8 2767.8 2560.3 2758.8 2555.8C2742.5 2534.3 2734.4 2502.8 2730.5 2484.5C2726.1 2463.5 2744.2 2455.7 2744.2 2455.7Z" fill="url(#paint10_linear_946_4344)"/>
<path d="M2761.5 2414.3L2772.5 2458.2C2773.17 2460.82 2772.92 2463.59 2771.79 2466.05C2770.66 2468.5 2768.72 2470.5 2766.3 2471.7C2760.2 2474.9 2751.5 2478.2 2743.5 2477.2C2741.66 2476.97 2739.93 2476.24 2738.5 2475.07C2737.06 2473.9 2735.99 2472.35 2735.4 2470.6L2719.2 2424.4L2761.5 2414.3Z" fill="url(#paint11_linear_946_4344)"/>
<path d="M2774.6 2427C2760.9 2439.2 2716.3 2440.8 2716.3 2440.8C2555.5 2055 2489.8 2000.1 2489.8 2000.1C2513 2145.8 2493.5 2468.2 2493.5 2468.2C2467 2479.9 2432.8 2468.2 2432.8 2468.2C2430.82 2262.15 2403.24 2057.15 2350.7 1857.9C2459.3 1855.5 2517.1 1818.3 2536 1803.4C2626.6 1949.4 2774.6 2427 2774.6 2427Z" fill="url(#paint12_linear_946_4344)"/>
<path d="M2508.4 1359.6C2529 1462.2 2521.6 1645.8 2516.8 1729.6C2515.4 1753.1 2531.8 1785.8 2545.1 1808C2545.6 1808.82 2545.93 1809.73 2546.06 1810.68C2546.19 1811.63 2546.13 1812.59 2545.86 1813.52C2545.6 1814.44 2545.15 1815.3 2544.53 1816.03C2543.92 1816.77 2543.16 1817.37 2542.3 1817.8C2520.1 1829.3 2444.7 1864.7 2357.4 1869.1C2354.57 1869.19 2351.8 1868.32 2349.52 1866.64C2347.25 1864.95 2345.62 1862.54 2344.9 1859.8C2280.1 1618 2204.9 1463.5 2204.9 1463.5C2287.9 1330.8 2508.4 1359.6 2508.4 1359.6Z" fill="url(#paint13_linear_946_4344)"/>
<path d="M2478.8 1991C2479.75 1991.01 2480.68 1990.77 2481.5 1990.3C2482.66 1989.58 2483.49 1988.43 2483.81 1987.1C2484.12 1985.77 2483.91 1984.37 2483.2 1983.2C2482.3 1981.8 2461.5 1948.1 2419.5 1927.8C2418.27 1927.21 2416.85 1927.13 2415.56 1927.58C2414.27 1928.03 2413.2 1928.97 2412.6 1930.2C2412.3 1930.81 2412.12 1931.47 2412.07 1932.15C2412.03 1932.83 2412.12 1933.51 2412.35 1934.16C2412.57 1934.8 2412.92 1935.39 2413.38 1935.9C2413.83 1936.4 2414.38 1936.81 2415 1937.1C2454.2 1956 2474.2 1988.2 2474.4 1988.5C2474.86 1989.26 2475.51 1989.88 2476.28 1990.32C2477.05 1990.76 2477.92 1990.99 2478.8 1991V1991Z" fill="#91B3FA"/>
<path d="M2637.4 1654.1C2630.8 1701.9 2611.3 1754 2572.2 1809.3L2557.4 1797.2C2557.4 1797.2 2574.5 1727.7 2564.8 1648.8C2588.9 1644.1 2617.3 1649 2637.4 1654.1Z" fill="url(#paint14_linear_946_4344)"/>
<path d="M2485.4 1486.2L2508.4 1359.6C2508.4 1359.6 2661.9 1477 2637.4 1654.1C2617.3 1649 2588.9 1644.1 2564.8 1648.8C2557.8 1592 2536.8 1530.3 2485.4 1486.2Z" fill="url(#paint15_linear_946_4344)"/>
<path d="M2204.9 1463.5L2264.1 1591C2254.6 1668.1 2213.2 1701.4 2168.6 1714.2C2166.39 1685.62 2159.68 1657.58 2148.7 1631.1C2205.7 1572.2 2204.9 1463.5 2204.9 1463.5Z" fill="url(#paint16_linear_946_4344)"/>
<path d="M2148.7 1631.1C2159.68 1657.58 2166.39 1685.62 2168.6 1714.2C2049.5 1760.3 2018 1670.8 2018 1670.8L2040 1666.9C2089.7 1672.1 2124.4 1656.1 2148.7 1631.1Z" fill="url(#paint17_linear_946_4344)"/>
<path d="M2259.5 1305.9L2288.1 1411.1C2288.85 1413.88 2290.19 1416.47 2292.01 1418.7C2293.84 1420.93 2296.12 1422.75 2298.7 1424.03C2301.27 1425.32 2304.1 1426.04 2306.98 1426.16C2309.86 1426.27 2312.73 1425.77 2315.4 1424.7C2329.5 1419.18 2343.28 1412.91 2356.7 1405.9C2360.07 1404.05 2363.02 1401.52 2365.36 1398.47C2367.7 1395.42 2369.38 1391.92 2370.29 1388.19C2371.2 1384.45 2371.33 1380.57 2370.66 1376.78C2369.99 1373 2368.54 1369.39 2366.4 1366.2L2306.9 1277.6L2259.5 1305.9Z" fill="url(#paint18_linear_946_4344)"/>
<path d="M1963.5 1600.4L2696.3 1867.1C2703.58 1869.74 2710.23 1873.86 2715.84 1879.2C2721.44 1884.54 2725.88 1890.98 2728.88 1898.12C2731.88 1905.26 2733.36 1912.94 2733.25 1920.68C2733.13 1928.42 2731.41 1936.05 2728.2 1943.1L2726 1948C2723.14 1954.25 2719.08 1959.88 2714.04 1964.56C2709 1969.25 2703.09 1972.88 2696.64 1975.27C2690.19 1977.66 2683.34 1978.75 2676.46 1978.48C2669.59 1978.21 2662.84 1976.59 2656.6 1973.7L1945 1644.6L1963.5 1600.4Z" fill="#1148D1"/>
<path opacity="0.23" d="M1626.6 1795.3C1826.42 1795.3 1988.4 1636.23 1988.4 1440C1988.4 1243.77 1826.42 1084.7 1626.6 1084.7C1426.78 1084.7 1264.8 1243.77 1264.8 1440C1264.8 1636.23 1426.78 1795.3 1626.6 1795.3Z" fill="white"/>
<path d="M1224.1 1440C1224.1 1658.3 1404.3 1835.3 1626.6 1835.3C1848.9 1835.3 2029.2 1658.3 2029.2 1440C2029.2 1221.7 1848.9 1044.7 1626.6 1044.7C1404.3 1044.7 1224.1 1221.6 1224.1 1440ZM1283.2 1440C1283.2 1253.7 1437 1102.7 1626.6 1102.7C1816.2 1102.7 1970 1253.7 1970 1440C1970 1626.3 1816.3 1777.2 1626.6 1777.2C1436.9 1777.2 1283.2 1626.2 1283.2 1440V1440Z" fill="#1148D1"/>
<path d="M1998.6 1487.9H1998.4C1998.18 1487.88 1997.96 1487.81 1997.76 1487.7C1997.57 1487.59 1997.39 1487.44 1997.25 1487.26C1997.11 1487.09 1997.01 1486.88 1996.95 1486.67C1996.89 1486.45 1996.87 1486.22 1996.9 1486C1998.1 1476.8 1998.9 1467.4 1999.4 1458C1999.4 1457.78 1999.44 1457.56 1999.53 1457.36C1999.62 1457.16 1999.74 1456.98 1999.9 1456.83C2000.06 1456.68 2000.25 1456.57 2000.46 1456.49C2000.66 1456.42 2000.88 1456.39 2001.1 1456.4C2001.33 1456.4 2001.56 1456.45 2001.77 1456.54C2001.99 1456.63 2002.18 1456.76 2002.34 1456.93C2002.5 1457.1 2002.62 1457.3 2002.7 1457.52C2002.78 1457.74 2002.81 1457.97 2002.8 1458.2C2002.3 1467.6 2001.5 1477.1 2000.3 1486.4C2000.25 1486.82 2000.05 1487.2 1999.74 1487.47C1999.42 1487.75 1999.02 1487.9 1998.6 1487.9V1487.9ZM1995.8 1377.4C1995.4 1377.39 1995.02 1377.24 1994.71 1376.99C1994.4 1376.74 1994.19 1376.39 1994.1 1376C1989.59 1350.84 1982.41 1326.24 1972.7 1302.6C1915.3 1163.4 1779.5 1073.5 1626.6 1073.5C1555.74 1073.37 1486.28 1093.23 1426.2 1130.8C1426.02 1130.93 1425.81 1131.02 1425.6 1131.06C1425.38 1131.1 1425.16 1131.1 1424.94 1131.05C1424.72 1131.01 1424.52 1130.92 1424.34 1130.79C1424.16 1130.66 1424.01 1130.49 1423.9 1130.3C1423.66 1129.91 1423.59 1129.45 1423.68 1129C1423.77 1128.56 1424.03 1128.16 1424.4 1127.9C1485.03 1090.03 1555.11 1069.99 1626.6 1070.1C1780.9 1070.1 1918 1160.9 1975.8 1301.3C1985.67 1325.15 1992.94 1349.99 1997.5 1375.4C1997.56 1375.85 1997.45 1376.3 1997.19 1376.67C1996.93 1377.04 1996.54 1377.3 1996.1 1377.4H1995.8Z" fill="#BDD0FB"/>
<path d="M2563.5 1795.1L2494.2 1789.5L2464.2 1817.2C2464.2 1817.2 2471.3 1827 2493.5 1821.3C2515.7 1815.6 2546.1 1814.3 2546.1 1814.3C2546.1 1814.3 2576.7 1828.1 2577.1 1802.3L2563.5 1795.1Z" fill="url(#paint19_linear_946_4344)"/>
<path d="M2026.9 1687.2C2020.9 1691.8 2000.3 1682.1 1987.8 1675.3C1984.83 1673.71 1982.5 1671.13 1981.22 1668.01C1979.95 1664.89 1979.8 1661.42 1980.8 1658.2C1983.8 1648.7 1988.9 1636.4 1995.1 1634.8C2005.4 1632.3 2051.5 1667.9 2026.9 1687.2Z" fill="url(#paint20_linear_946_4344)"/>
<path d="M2681.9 1962.5C2681.54 1962.49 2681.19 1962.38 2680.91 1962.16C2680.62 1961.94 2680.41 1961.64 2680.3 1961.3C2680.22 1961.1 2680.19 1960.88 2680.19 1960.66C2680.2 1960.44 2680.25 1960.23 2680.35 1960.03C2680.44 1959.84 2680.57 1959.66 2680.74 1959.52C2680.9 1959.38 2681.09 1959.27 2681.3 1959.2C2702.4 1951.9 2713.5 1940 2714.2 1923.9C2714.9 1907.8 2704.6 1892.4 2688.6 1886.2L2600.6 1851.9C2600.19 1851.72 2599.86 1851.4 2599.68 1850.99C2599.49 1850.59 2599.47 1850.13 2599.6 1849.7C2599.67 1849.48 2599.78 1849.28 2599.93 1849.1C2600.08 1848.93 2600.26 1848.79 2600.47 1848.7C2600.68 1848.6 2600.91 1848.55 2601.14 1848.55C2601.37 1848.55 2601.59 1848.6 2601.8 1848.7L2689.8 1883C2707.2 1889.8 2718.4 1906.3 2717.6 1924C2716.8 1941.7 2705 1954.6 2682.4 1962.4L2681.9 1962.5Z" fill="#BDD0FB"/>
<path d="M2574.1 1841.4H2573.5L2562 1836.9C2561.76 1836.84 2561.54 1836.73 2561.35 1836.58C2561.16 1836.42 2561 1836.23 2560.89 1836.01C2560.78 1835.79 2560.72 1835.55 2560.72 1835.31C2560.71 1835.06 2560.75 1834.82 2560.85 1834.59C2560.94 1834.37 2561.08 1834.17 2561.26 1834C2561.44 1833.83 2561.66 1833.71 2561.89 1833.63C2562.12 1833.56 2562.37 1833.53 2562.61 1833.56C2562.86 1833.59 2563.09 1833.67 2563.3 1833.8L2574.7 1838.2C2575.11 1838.38 2575.44 1838.7 2575.62 1839.11C2575.81 1839.51 2575.84 1839.97 2575.7 1840.4C2575.56 1840.71 2575.34 1840.96 2575.05 1841.14C2574.77 1841.32 2574.44 1841.41 2574.1 1841.4Z" fill="#BDD0FB"/>
<path d="M2253.3 1202.7C2253.3 1202.7 2229.6 1257.1 2228 1285.6C2226.4 1314.1 2220.3 1332.7 2253.3 1338.5C2286.3 1344.3 2314.1 1327.8 2329.2 1299.3C2329.2 1299.3 2352.8 1255.5 2347.5 1237.6C2342.2 1219.7 2253.3 1202.7 2253.3 1202.7Z" fill="url(#paint21_linear_946_4344)"/>
<path d="M2317.9 1278.9H2313.7C2313.7 1278.9 2330.9 1243.6 2315.8 1237.4C2300.7 1231.2 2240.9 1219 2228 1197.8C2215.1 1176.6 2226.6 1150.9 2243.2 1143.5C2243.46 1143.38 2243.73 1143.32 2244.01 1143.31C2244.29 1143.31 2244.57 1143.36 2244.83 1143.46C2245.09 1143.56 2245.33 1143.71 2245.53 1143.91C2245.73 1144.11 2245.89 1144.34 2246 1144.6L2247.4 1147.2C2247.62 1147.59 2247.96 1147.9 2248.36 1148.11C2248.76 1148.31 2249.22 1148.39 2249.67 1148.33C2250.11 1148.28 2250.53 1148.1 2250.88 1147.81C2251.22 1147.52 2251.47 1147.13 2251.6 1146.7C2251.71 1146.28 2251.94 1145.91 2252.26 1145.62C2252.58 1145.33 2252.98 1145.14 2253.4 1145.08C2253.83 1145.02 2254.26 1145.08 2254.65 1145.26C2255.04 1145.44 2255.37 1145.73 2255.6 1146.1C2259.5 1152.5 2270.2 1162.8 2298.9 1168.1C2339.6 1175.6 2366.6 1192.1 2367.2 1220.2C2367.21 1220.6 2367.33 1221 2367.54 1221.34C2367.75 1221.68 2368.05 1221.97 2368.4 1222.16C2368.76 1222.35 2369.16 1222.45 2369.56 1222.44C2369.96 1222.43 2370.36 1222.31 2370.7 1222.1C2373.7 1220.2 2378.5 1219.4 2384.9 1224.8C2396.1 1234.2 2391.5 1258.6 2367 1278.6C2366.74 1278.82 2366.52 1279.1 2366.38 1279.42C2366.24 1279.73 2366.17 1280.08 2366.18 1280.42C2366.19 1280.77 2366.28 1281.11 2366.44 1281.42C2366.6 1281.72 2366.82 1281.99 2367.1 1282.2C2371.6 1285.1 2378.2 1292 2361 1301.2C2343.8 1310.4 2333.1 1309.5 2329.2 1308.5C2328.68 1308.4 2328.21 1308.11 2327.9 1307.68C2327.58 1307.26 2327.44 1306.73 2327.5 1306.2L2329 1281.3C2329.03 1280.99 2328.99 1280.69 2328.89 1280.4C2328.8 1280.1 2328.64 1279.84 2328.43 1279.61C2328.22 1279.39 2327.97 1279.21 2327.69 1279.08C2327.41 1278.96 2327.11 1278.9 2326.8 1278.9H2317.9Z" fill="url(#paint22_linear_946_4344)"/>
<path d="M2316.9 1284.1C2316.9 1284.1 2325.9 1249.4 2341.5 1259.1C2357.1 1268.8 2333.4 1298 2320.9 1299.3L2316.9 1284.1Z" fill="url(#paint23_linear_946_4344)"/>
<defs>
<linearGradient id="paint0_linear_946_4344" x1="3067.95" y1="3408.19" x2="697.43" y2="464.149" gradientUnits="userSpaceOnUse">
<stop stop-color="#DAE3FE"/>
<stop offset="1" stop-color="#E9EFFD"/>
</linearGradient>
<linearGradient id="paint1_linear_946_4344" x1="1717.03" y1="396.119" x2="1180.15" y2="2006.75" gradientUnits="userSpaceOnUse">
<stop stop-color="#0D0F3A"/>
<stop offset="1" stop-color="#005AC8"/>
</linearGradient>
<linearGradient id="paint2_linear_946_4344" x1="1059.16" y1="1385.01" x2="-38.1101" y2="3070.96" gradientUnits="userSpaceOnUse">
<stop stop-color="#4F52FF"/>
<stop offset="1" stop-color="#4042E2"/>
</linearGradient>
<linearGradient id="paint3_linear_946_4344" x1="893.6" y1="1073.46" x2="362.891" y2="1311.51" gradientUnits="userSpaceOnUse">
<stop stop-color="#09005D"/>
<stop offset="1" stop-color="#1A0F91"/>
</linearGradient>
<linearGradient id="paint4_linear_946_4344" x1="870.019" y1="1021.3" x2="502.491" y2="1496.13" gradientUnits="userSpaceOnUse">
<stop stop-color="#09005D"/>
<stop offset="1" stop-color="#1A0F91"/>
</linearGradient>
<linearGradient id="paint5_linear_946_4344" x1="823.975" y1="1050.14" x2="569.064" y2="1508.65" gradientUnits="userSpaceOnUse">
<stop stop-color="#09005D"/>
<stop offset="1" stop-color="#1A0F91"/>
</linearGradient>
<linearGradient id="paint6_linear_946_4344" x1="2501.98" y1="2558.23" x2="2342.48" y2="2558.23" gradientUnits="userSpaceOnUse">
<stop stop-color="#070822"/>
<stop offset="1" stop-color="#0F102B"/>
</linearGradient>
<linearGradient id="paint7_linear_946_4344" x1="2501.99" y1="2526.97" x2="2346.98" y2="2526.97" gradientUnits="userSpaceOnUse">
<stop stop-color="white"/>
<stop offset="1" stop-color="#D7D6E0"/>
</linearGradient>
<linearGradient id="paint8_linear_946_4344" x1="2487.25" y1="2483.32" x2="2442.33" y2="2483.32" gradientUnits="userSpaceOnUse">
<stop stop-color="#FEBBBA"/>
<stop offset="1" stop-color="#FF928E"/>
</linearGradient>
<linearGradient id="paint9_linear_946_4344" x1="2819.96" y1="2554.79" x2="2758.84" y2="2554.79" gradientUnits="userSpaceOnUse">
<stop stop-color="#1A1B3C"/>
<stop offset="1" stop-color="#10101F"/>
</linearGradient>
<linearGradient id="paint10_linear_946_4344" x1="2819.51" y1="2507.72" x2="2729.8" y2="2507.72" gradientUnits="userSpaceOnUse">
<stop stop-color="white"/>
<stop offset="1" stop-color="#DEDDEC"/>
</linearGradient>
<linearGradient id="paint11_linear_946_4344" x1="2772.88" y1="2445.87" x2="2719.19" y2="2445.87" gradientUnits="userSpaceOnUse">
<stop stop-color="#FEBBBA"/>
<stop offset="1" stop-color="#FF928E"/>
</linearGradient>
<linearGradient id="paint12_linear_946_4344" x1="2873.3" y1="914.728" x2="2591.91" y2="2026.89" gradientUnits="userSpaceOnUse">
<stop stop-color="#4D4D5F"/>
<stop offset="1"/>
</linearGradient>
<linearGradient id="paint13_linear_946_4344" x1="2512.04" y1="1421.26" x2="2036.52" y2="2178" gradientUnits="userSpaceOnUse">
<stop stop-color="#FE7062"/>
<stop offset="1" stop-color="#FF928E"/>
</linearGradient>
<linearGradient id="paint14_linear_946_4344" x1="2526.88" y1="1663.21" x2="2718.02" y2="1832.47" gradientUnits="userSpaceOnUse">
<stop stop-color="#FEBBBA"/>
<stop offset="1" stop-color="#FF928E"/>
</linearGradient>
<linearGradient id="paint15_linear_946_4344" x1="2594.23" y1="1472.91" x2="2118.71" y2="2229.65" gradientUnits="userSpaceOnUse">
<stop stop-color="#FE7062"/>
<stop offset="1" stop-color="#FF928E"/>
</linearGradient>
<linearGradient id="paint16_linear_946_4344" x1="2368.34" y1="1330.96" x2="1892.82" y2="2087.7" gradientUnits="userSpaceOnUse">
<stop stop-color="#FE7062"/>
<stop offset="1" stop-color="#FF928E"/>
</linearGradient>
<linearGradient id="paint17_linear_946_4344" x1="2168.57" y1="1679.22" x2="2018.04" y2="1679.22" gradientUnits="userSpaceOnUse">
<stop stop-color="#FEBBBA"/>
<stop offset="1" stop-color="#FF928E"/>
</linearGradient>
<linearGradient id="paint18_linear_946_4344" x1="2314.89" y1="1276.95" x2="2316.53" y2="1558.06" gradientUnits="userSpaceOnUse">
<stop stop-color="#FEBBBA"/>
<stop offset="1" stop-color="#FF928E"/>
</linearGradient>
<linearGradient id="paint19_linear_946_4344" x1="2451.4" y1="1748.45" x2="2642.54" y2="1917.71" gradientUnits="userSpaceOnUse">
<stop stop-color="#FEBBBA"/>
<stop offset="1" stop-color="#FF928E"/>
</linearGradient>
<linearGradient id="paint20_linear_946_4344" x1="2034.03" y1="1661.54" x2="1980.13" y2="1661.54" gradientUnits="userSpaceOnUse">
<stop stop-color="#FEBBBA"/>
<stop offset="1" stop-color="#FF928E"/>
</linearGradient>
<linearGradient id="paint21_linear_946_4344" x1="2248.34" y1="1250.59" x2="2383.67" y2="1354.14" gradientUnits="userSpaceOnUse">
<stop stop-color="#FEBBBA"/>
<stop offset="1" stop-color="#FF928E"/>
</linearGradient>
<linearGradient id="paint22_linear_946_4344" x1="2343.42" y1="1168.85" x2="2220.87" y2="1326.62" gradientUnits="userSpaceOnUse">
<stop stop-color="#09005D"/>
<stop offset="1" stop-color="#1A0F91"/>
</linearGradient>
<linearGradient id="paint23_linear_946_4344" x1="2265.13" y1="1228.65" x2="2400.46" y2="1332.2" gradientUnits="userSpaceOnUse">
<stop stop-color="#FEBBBA"/>
<stop offset="1" stop-color="#FF928E"/>
</linearGradient>
</defs>
</svg>
